<svg xmlns="http://www.w3.org/2000/svg">
  <symbol id="phone" viewBox="0 0 401.998 401.998">
    <path d="M401.129,311.475c-1.137-3.426-8.371-8.473-21.697-15.129c-3.61-2.098-8.754-4.949-15.41-8.566
      c-6.662-3.617-12.709-6.95-18.13-9.996c-5.432-3.045-10.521-5.995-15.276-8.846c-0.76-0.571-3.139-2.234-7.136-5
      c-4.001-2.758-7.375-4.805-10.14-6.14c-2.759-1.327-5.473-1.995-8.138-1.995c-3.806,0-8.56,2.714-14.268,8.135
      c-5.708,5.428-10.944,11.324-15.7,17.706c-4.757,6.379-9.802,12.275-15.126,17.7c-5.332,5.427-9.713,8.138-13.135,8.138
      c-1.718,0-3.86-0.479-6.427-1.424c-2.566-0.951-4.518-1.766-5.858-2.423c-1.328-0.671-3.607-1.999-6.845-4.004
      c-3.244-1.999-5.048-3.094-5.428-3.285c-26.075-14.469-48.438-31.029-67.093-49.676c-18.649-18.658-35.211-41.019-49.676-67.097
      c-0.19-0.381-1.287-2.19-3.284-5.424c-2-3.237-3.333-5.518-3.999-6.854c-0.666-1.331-1.475-3.283-2.425-5.852
      s-1.427-4.709-1.427-6.424c0-3.424,2.713-7.804,8.138-13.134c5.424-5.327,11.326-10.373,17.7-15.128
      c6.379-4.755,12.275-9.991,17.701-15.699c5.424-5.711,8.136-10.467,8.136-14.273c0-2.663-0.666-5.378-1.997-8.137
      c-1.332-2.765-3.378-6.139-6.139-10.138c-2.762-3.997-4.427-6.374-4.999-7.139c-2.852-4.755-5.799-9.846-8.848-15.271
      c-3.049-5.424-6.377-11.47-9.995-18.131c-3.615-6.658-6.468-11.799-8.564-15.415C98.986,9.233,93.943,1.997,90.516,0.859
      C89.183,0.288,87.183,0,84.521,0c-5.142,0-11.85,0.95-20.129,2.856c-8.282,1.903-14.799,3.899-19.558,5.996
      c-9.517,3.995-19.604,15.605-30.264,34.826C4.863,61.566,0.01,79.271,0.01,96.78c0,5.135,0.333,10.131,0.999,14.989
      c0.666,4.853,1.856,10.326,3.571,16.418c1.712,6.09,3.093,10.614,4.137,13.56c1.045,2.948,2.996,8.229,5.852,15.845
      c2.852,7.614,4.567,12.275,5.138,13.988c6.661,18.654,14.56,35.307,23.695,49.964c15.03,24.362,35.541,49.539,61.521,75.521
      c25.981,25.98,51.153,46.49,75.517,61.526c14.655,9.134,31.314,17.032,49.965,23.698c1.714,0.568,6.375,2.279,13.986,5.141
      c7.614,2.854,12.897,4.805,15.845,5.852c2.949,1.048,7.474,2.43,13.559,4.145c6.098,1.715,11.566,2.905,16.419,3.576
      c4.856,0.657,9.853,0.996,14.989,0.996c17.508,0,35.214-4.856,53.105-14.562c19.219-10.656,30.826-20.745,34.823-30.269
      c2.102-4.754,4.093-11.273,5.996-19.555c1.909-8.278,2.857-14.985,2.857-20.126C401.99,314.814,401.703,312.819,401.129,311.475z"/>
  </symbol>
  <symbol id="logo" viewBox="0 0 40 40">
    <path d="M20,26a6,6,0,1,0-6-6h0A6,6,0,0,0,20,26ZM20,0a20,20,0,0,0-6,.92V12a10,10,0,1,1-4,8V2.67A20,20,0,1,0,20,0Z"/>
  </symbol>
  <symbol id="sound" viewBox="0 0 52.026 52.026">
    <g>
      <path d="M28.404,3.413c-0.976-0.552-2.131-0.534-3.09,0.044c-0.046,0.027-0.09,0.059-0.13,0.093L11.634,15.013H1
        c-0.553,0-1,0.447-1,1v19c0,0.266,0.105,0.52,0.293,0.707S0.734,36.013,1,36.013l10.61-0.005l13.543,12.44
        c0.05,0.046,0.104,0.086,0.161,0.12c0.492,0.297,1.037,0.446,1.582,0.446c0.517-0.001,1.033-0.134,1.508-0.402
        C29.403,48.048,30,47.018,30,45.857V6.169C30,5.008,29.403,3.978,28.404,3.413z M28,45.857c0,0.431-0.217,0.81-0.579,1.015
        c-0.155,0.087-0.548,0.255-1,0.026L13,34.569v-4.556c0-0.553-0.447-1-1-1s-1,0.447-1,1v3.996l-9,0.004v-17h9v4c0,0.553,0.447,1,1,1
        s1-0.447,1-1v-4.536l13.405-11.34c0.461-0.242,0.86-0.07,1.016,0.018C27.783,5.36,28,5.739,28,6.169V45.857z"/>
      <path d="M38.797,7.066c-0.523-0.177-1.091,0.103-1.269,0.626c-0.177,0.522,0.103,1.091,0.626,1.269
        c7.101,2.411,11.872,9.063,11.872,16.553c0,7.483-4.762,14.136-11.849,16.554c-0.522,0.178-0.802,0.746-0.623,1.27
        c0.142,0.415,0.53,0.677,0.946,0.677c0.107,0,0.216-0.017,0.323-0.054c7.896-2.693,13.202-10.106,13.202-18.446
        C52.026,17.166,46.71,9.753,38.797,7.066z"/>
      <path d="M43.026,25.513c0-5.972-4.009-11.302-9.749-12.962c-0.533-0.151-1.084,0.152-1.238,0.684
        c-0.153,0.53,0.152,1.085,0.684,1.238c4.889,1.413,8.304,5.953,8.304,11.04s-3.415,9.627-8.304,11.04
        c-0.531,0.153-0.837,0.708-0.684,1.238c0.127,0.438,0.526,0.723,0.961,0.723c0.092,0,0.185-0.013,0.277-0.039
        C39.018,36.815,43.026,31.485,43.026,25.513z"/>
    </g>
  </symbol>
  <symbol id="battery" viewBox="0 0 60 60">
    <path d="M42.536,4H36V0H24v4h-6.536C15.554,4,14,5.554,14,7.464v49.072C14,58.446,15.554,60,17.464,60h25.072
      C44.446,60,46,58.446,46,56.536V7.464C46,5.554,44.446,4,42.536,4z M16,19h28v12H16V19z M16,33h28v12H16V33z M26,2h8v2h-8V2z
      M17.464,6H24h12h6.536C43.344,6,44,6.656,44,7.464V17H16V7.464C16,6.656,16.656,6,17.464,6z M42.536,58H17.464
      C16.656,58,16,57.344,16,56.536V47h28v9.536C44,57.344,43.344,58,42.536,58z"/>
  </symbol>
  <symbol id="plug" viewBox="0 0 512 512">
    <g>
			<path d="M391.533,109.933h-25.6V24.6c0-14.507-11.093-25.6-25.6-25.6c-14.507,0-25.6,11.093-25.6,25.6v85.333H195.267V24.6
				c0-14.507-11.093-25.6-25.6-25.6c-14.507,0-25.6,11.093-25.6,25.6v85.333h-25.6c-5.12,0-8.533,3.413-8.533,8.533v64.853
				c0,42.667,16.213,83.627,45.227,115.2c25.6,29.013,40.107,66.56,40.107,104.96v22.187c0,23.893,18.773,42.667,42.667,42.667
				h8.533v34.133c0,5.12,3.413,8.533,8.533,8.533c5.12,0,8.533-3.413,8.533-8.533v-34.133h8.533
				c23.893,0,42.667-18.773,42.667-42.667v-21.333c0-39.253,13.653-75.947,40.107-104.96
				c29.013-31.573,45.227-73.387,45.227-116.053v-64.853C400.067,113.347,396.653,109.933,391.533,109.933z M331.8,24.6
				c0-5.12,3.413-8.533,8.533-8.533s8.533,3.413,8.533,8.533v85.333H331.8V24.6z M161.133,24.6c0-4.267,3.413-8.533,8.533-8.533
				c5.12,0,8.533,3.413,8.533,8.533v85.333h-17.067V24.6z M383,182.467c0,39.253-13.653,75.947-40.107,104.96
				C313.88,319,297.667,360.813,297.667,403.48v22.187c0,14.507-11.093,25.6-25.6,25.6h-34.133c-14.507,0-25.6-11.093-25.6-25.6
				v-21.333c0-42.667-16.213-84.48-45.227-116.053C141.507,259.267,127,221.72,127,183.32V127h25.6h34.133h136.533H357.4H383
				V182.467z"/>
			<path d="M289.133,220.867h-47.787l45.227-45.227c3.413-3.413,3.413-8.533,0-11.947s-8.533-3.413-11.947,0l-59.733,59.733
				c-2.56,2.56-3.413,5.973-1.707,9.387c0.853,3.413,4.267,5.12,7.68,5.12h47.787l-45.227,45.227c-3.413,3.413-3.413,8.533,0,11.947
				c1.707,1.707,3.413,2.56,5.973,2.56c2.56,0,4.267-0.853,5.973-2.56l59.733-59.733c2.56-2.56,3.413-5.973,1.707-9.387
				C295.96,222.573,292.547,220.867,289.133,220.867z"/>
		</g>
  </symbol>
  <symbol id="charging" viewBox="0 0 409.6 409.6">
    <g>
      <path d="M275.483,34.133H134.117c-15.607,0-28.303,12.696-28.303,28.303v318.86c0,15.607,12.696,28.303,28.303,28.303h141.367
        c15.607,0,28.303-12.696,28.303-28.303V62.437C303.787,46.829,291.091,34.133,275.483,34.133z M290.133,381.297
        c0,8.076-6.574,14.65-14.65,14.65H134.117c-8.076,0-14.65-6.574-14.65-14.65V62.437c0-8.076,6.574-14.65,14.65-14.65h141.367
        c8.076,0,14.65,6.574,14.65,14.65V381.297z"/>
      <path d="M242.347,0h-75.093c-3.77,0-6.827,3.057-6.827,6.827V40.96c0,3.77,3.057,6.827,6.827,6.827h75.093
			  c3.77,0,6.827-3.057,6.827-6.827V6.827C249.173,3.057,246.117,0,242.347,0z M235.52,34.133h-61.44v-20.48h61.44V34.133z"/>
      <path d="M254.93,187.479c-1.253-1.971-3.424-3.161-5.757-3.161h-40.96v-61.44c0-3.2-2.224-5.97-5.347-6.663
        c-3.152-0.69-6.313,0.877-7.666,3.777l-47.787,102.4c-0.986,2.113-0.823,4.588,0.43,6.554c1.253,1.971,3.424,3.161,5.757,3.161
        h40.96v61.44c0,3.2,2.224,5.97,5.347,6.663c0.497,0.111,0.993,0.164,1.483,0.164c2.606,0,5.043-1.5,6.183-3.941l47.787-102.4
        C256.346,191.92,256.183,189.445,254.93,187.479z M194.56,218.453h-30.24l30.24-64.804V218.453z M208.213,262.777v-64.804h30.24
        L208.213,262.777z"/>  
	  </g>
  </symbol>
  <symbol id="noise" viewBox="0 0 60 60">
    <g>
      <path id="Shape" d="m18 0c-9.925 0-18 8.748-18 19.549.03819386 2.5043778.72485482 4.9560985 1.993 7.116.5992406 1.0222536 1.11234558 2.092616 1.534 3.2.27964082.8138953.01123513 1.7155455-.668 2.244-1.18174374.9447425-1.86653676 2.3780559-1.859 3.891-.00474262 1.6625215.81717917 3.2186634 2.193 4.152.49462827.3360251.79548602.8911393.807 1.489v8.359c0 5.514 4.037 10 9 10s9-4.486 9-10c-.0151885-4.1184474 1.7757406-8.0365615 4.9-10.72 5.8568631-4.8868272 9.199657-12.1528122 9.1-19.78 0-10.752-8.075-19.5-18-19.5zm7.6 37.761c-3.5690404 3.0626345-5.6158785 7.5360725-5.6 12.239 0 4.411-3.141 8-7 8s-7-3.589-7-8v-8.359c-.01620182-1.2385055-.62394239-2.3945136-1.635-3.11-.85435865-.5579765-1.36810973-1.5105801-1.365-2.531-.00686155-.9198384.41445209-1.7905533 1.14-2.356 1.33140873-1.066671 1.83976683-2.86038 1.266-4.467-.46056114-1.2113301-1.02151176-2.3820678-1.677-3.5-1.10201369-1.874322-1.69783317-4.0029379-1.729-6.177 0-9.649 7.178-17.5 16-17.5s16 7.851 16 17.5c.0915428 7.0411079-2.9939568 13.7487636-8.4 18.261z"/>
      <path id="Shape" d="m18 5c-5.573 0-10.325 3.952-12.17 9.476-.013.033-.022.065-.032.1-.5272418 1.6040759-.79724954 3.2814989-.8 4.97 0 1.2 0 4.87 2.293 7.163.39237889.3789722 1.01608478.3735524 1.40181858-.0121814.38573379-.3857338.39115363-1.0094397.01218142-1.4018186-.82155739-.9132539-1.3491204-2.0527063-1.514-3.27.161-.01.32-.023.487-.023 4.59-.002 8.322 4.198 8.322 9.358 0 .479-.023.929-.06 1.373-.4978832.5315763-1.0275205 1.0324943-1.586 1.5-2.9125701 2.3851948-4.52684196 6.0063691-4.354 9.767 0 .5522847.4477153 1 1 1s1-.4477153 1-1c-.1720387-3.1707753 1.1831952-6.2325036 3.646-8.237 3.5281209-2.707959 5.5239529-6.9587008 5.354-11.403 0-6.26-4.71-11.36-10.5-11.36-.66513337.0017525-1.32831115.0721251-1.979.21 1.7381919-3.68980728 5.4020384-6.09011184 9.479-6.21 6.065 0 11 5.627 11 12.544.0786047 5.4490737-2.2845859 10.6475796-6.442 14.171-.138.119-.291.247-.457.386-1.99 1.654-6.129 5.1-7.095 13.789-.0584247.5475087.3367459 1.0392368.884 1.1.0364619.0052945.0731811.0086327.11.01.5093591-.0004745.9369707-.3837316.993-.89.877-7.89 4.46-10.871 6.386-12.472.177-.148.34-.284.486-.41 4.602707-3.8990033 7.2200661-9.6524245 7.135-15.684 0-8.02-5.832-14.544-13-14.544zm-7.5 10c4.687 0 8.5 4.2 8.5 9.36.0453636 1.8921894-.3303607 3.7708112-1.1 5.5-.671-5.56-4.993-9.86-10.22-9.86-.231 0-.453.017-.676.033 0-.192 0-.359 0-.489.00036187-1.3373184.19162438-2.6677377.568-3.951.92726505-.3890787 1.92241707-.5906241 2.928-.593z"/><path id="Shape" d="m50 23c.0767062-3.1517392 1.4133481-6.1412643 3.711-8.3.2790877-.2478662.3968971-.6305358.3055372-.9924487-.0913598-.361913-.3766793-.6428183-.7399727-.7285245-.3632933-.0857062-.7440796.038055-.9875645.3209732-2.6707148 2.5286775-4.215708 6.0228332-4.289 9.7.073292 3.6771668 1.6182852 7.1713225 4.289 9.7.2434849.2829182.6242712.4066794.9875645.3209732.3632934-.0857062.6486129-.3666115.7399727-.7285245.0913599-.3619129-.0264495-.7445825-.3055372-.9924487-2.2976519-2.1587357-3.6342938-5.1482608-3.711-8.3z"/>
      <path id="Shape" d="m56.665 17.253c-.1981032-.1763985-.4581747-.2668617-.7229856-.2514832-.2648108.0153786-.5126623.1353387-.6890144.3334832-3.0038043 3.1793913-3.0038043 8.1506087 0 11.33.2375816.2668774.5994935.386734.9494069.314421s.6346682-.3258096.747-.665.0351747-.7125436-.2024069-.979421c-2.3292957-2.4206558-2.3292957-6.2493442 0-8.67.1763985-.1981032.2668617-.4581747.2514832-.7229856-.0153786-.2648108-.1353387-.5126623-.3334832-.6890144z"/>
      <path id="Shape" d="m59.743 20.331c-.3695287-.4102424-1.0016135-.4433686-1.412-.074-.8404607.6621414-1.3309783 1.6730443-1.3309783 2.743s.4905176 2.0808586 1.3309783 2.743c.2641632.2474727.6414391.3328718.9864254.2232844.3449863-.1095873.6038197-.397051.6767457-.7516024.072926-.3545515-.0514414-.7208339-.3251711-.957682-.3877047-.3080639-.6300126-.7633419-.669-1.257.0389874-.4936581.2812953-.9489361.669-1.257.4102424-.3695287.4433686-1.0016135.074-1.412z"/>
      <path id="Shape" d="m45 23c0-4.4 1.971-8.652 5.7-12.284.2558022-.2500859.3587539-.6176437.2700742-.9642178-.0886796-.34657414-.3555181-.61951181-.7-.71600002-.3444818-.09648821-.714272-.00186811-.9700742.24821782-4.12 4.016-6.3 8.759-6.3 13.716s2.18 9.7 6.3 13.716c.3954359.3865993 1.0294007.3794359 1.416-.016s.3794359-1.0294007-.016-1.416c-3.729-3.632-5.7-7.884-5.7-12.284z"/>
      <path id="Shape" d="m40 23c0-5.494 2.322-10.786 6.717-15.3.2500859-.25615943.3445154-.62627975.2477178-.97094021-.0967976-.34466047-.3701165-.61149896-.717-.7s-.7146319.01478078-.9647178.27094021c-4.764 4.9-7.283 10.675-7.283 16.7s2.519 11.8 7.283 16.7c.3865993.3959882 1.0210118.4035993 1.417.017s.4035993-1.0210118.017-1.417c-4.395-4.514-6.717-9.806-6.717-15.3z"/>
    </g>
  </symbol>
  <symbol id="time" viewBox="0 0 60 60">
    <g>
      <path d="M31.634,37.989c1.041-0.081,1.99-0.612,2.606-1.459l9.363-12.944c0.287-0.397,0.244-0.945-0.104-1.293
        c-0.348-0.347-0.896-0.39-1.293-0.104L29.26,31.555c-0.844,0.614-1.375,1.563-1.456,2.604s0.296,2.06,1.033,2.797
        C29.508,37.628,30.413,38,31.354,38C31.447,38,31.54,37.996,31.634,37.989z M29.798,34.315c0.035-0.457,0.269-0.874,0.637-1.142
        l7.897-5.713l-5.711,7.895c-0.27,0.371-0.687,0.604-1.144,0.64c-0.455,0.03-0.902-0.128-1.227-0.453
        C29.928,35.219,29.762,34.771,29.798,34.315z"/>
      <path d="M54.034,19.564c-0.01-0.021-0.01-0.043-0.021-0.064c-0.012-0.02-0.031-0.031-0.044-0.05
        c-1.011-1.734-2.207-3.347-3.565-4.809l2.148-2.147l1.414,1.414l4.242-4.243l-4.242-4.242l-4.243,4.242l1.415,1.415l-2.148,2.147
        c-1.462-1.358-3.074-2.555-4.809-3.566c-0.019-0.013-0.03-0.032-0.05-0.044c-0.021-0.012-0.043-0.011-0.064-0.022
        c-3.093-1.782-6.568-2.969-10.273-3.404V5h1.5c1.379,0,2.5-1.121,2.5-2.5S36.672,0,35.293,0h-9c-1.379,0-2.5,1.121-2.5,2.5
        s1.121,2.5,2.5,2.5h1.5v1.156c-1.08,0.115-2.158,0.291-3.224,0.535c-0.538,0.123-0.875,0.66-0.751,1.198
        c0.123,0.538,0.66,0.876,1.198,0.751c0.92-0.211,1.849-0.37,2.78-0.477l1.073-0.083c0.328-0.025,0.63-0.043,0.924-0.057V10
        c0,0.553,0.447,1,1,1s1-0.447,1-1V8.03c3.761,0.173,7.305,1.183,10.456,2.845l-0.986,1.707c-0.276,0.479-0.112,1.09,0.366,1.366
        c0.157,0.091,0.329,0.134,0.499,0.134c0.346,0,0.682-0.179,0.867-0.5l0.983-1.703c3.129,1.985,5.787,4.643,7.772,7.772
        l-1.703,0.983C49.57,20.91,49.406,21.521,49.683,22c0.186,0.321,0.521,0.5,0.867,0.5c0.17,0,0.342-0.043,0.499-0.134l1.707-0.986
        c1.685,3.196,2.698,6.798,2.849,10.619H53.63c-0.553,0-1,0.447-1,1s0.447,1,1,1h1.975c-0.151,3.821-1.164,7.423-2.849,10.619
        l-1.707-0.986c-0.478-0.276-1.09-0.114-1.366,0.366c-0.276,0.479-0.112,1.09,0.366,1.366l1.703,0.983
        c-1.985,3.129-4.643,5.787-7.772,7.772l-0.983-1.703c-0.277-0.48-0.89-0.643-1.366-0.366c-0.479,0.276-0.643,0.888-0.366,1.366
        l0.986,1.707c-3.151,1.662-6.695,2.672-10.456,2.845V56c0-0.553-0.447-1-1-1s-1,0.447-1,1v1.976
        c-1.597-0.055-3.199-0.255-4.776-0.617c-0.538-0.129-1.075,0.213-1.198,0.751c-0.124,0.538,0.213,1.075,0.751,1.198
        C26.568,59.768,28.607,60,30.63,60c0.049,0,0.096-0.003,0.145-0.004c0.007,0,0.012,0.004,0.018,0.004
        c0.008,0,0.015-0.005,0.023-0.005c4.807-0.033,9.317-1.331,13.219-3.573c0.031-0.014,0.064-0.021,0.094-0.039
        c0.02-0.012,0.031-0.031,0.05-0.044c4.039-2.354,7.414-5.725,9.773-9.761c0.019-0.027,0.043-0.048,0.06-0.078
        c0.012-0.021,0.011-0.043,0.021-0.064C56.317,42.476,57.63,37.89,57.63,33S56.317,23.524,54.034,19.564z M53.965,8.251l1.414,1.414
        l-1.414,1.415L52.55,9.665L53.965,8.251z M29.793,6.021V3h-3.5c-0.275,0-0.5-0.225-0.5-0.5s0.225-0.5,0.5-0.5h9
        c0.275,0,0.5,0.225,0.5,0.5S35.568,3,35.293,3h-3.5v3.021C31.445,6.007,31.113,6,30.793,6c-0.028,0-0.06,0.002-0.088,0.002
        C30.68,6.002,30.655,6,30.63,6c-0.164,0-0.328,0.011-0.492,0.014C30.022,6.017,29.913,6.016,29.793,6.021z"/>
      <path d="M21.793,14h-5c-0.553,0-1,0.447-1,1s0.447,1,1,1h5c0.553,0,1-0.447,1-1S22.346,14,21.793,14z"/>
      <path d="M21.793,21h-10c-0.553,0-1,0.447-1,1s0.447,1,1,1h10c0.553,0,1-0.447,1-1S22.346,21,21.793,21z"/>
      <path d="M21.793,28h-15c-0.553,0-1,0.447-1,1s0.447,1,1,1h15c0.553,0,1-0.447,1-1S22.346,28,21.793,28z"/>
      <path d="M21.793,35h-19c-0.553,0-1,0.447-1,1s0.447,1,1,1h19c0.553,0,1-0.447,1-1S22.346,35,21.793,35z"/>
      <path d="M21.793,42h-13c-0.553,0-1,0.447-1,1s0.447,1,1,1h13c0.553,0,1-0.447,1-1S22.346,42,21.793,42z"/>
      <path d="M21.793,49h-7c-0.553,0-1,0.447-1,1s0.447,1,1,1h7c0.553,0,1-0.447,1-1S22.346,49,21.793,49z"/>
    </g>
  </symbol>
  <symbol id="tg" viewBox="0 0 24 24">
    <path d="m9.417 15.181-.397 5.584c.568 0 .814-.244 1.109-.537l2.663-2.545 5.518 4.041c1.012.564 1.725.267 1.998-.931l3.622-16.972.001-.001c.321-1.496-.541-2.081-1.527-1.714l-21.29 8.151c-1.453.564-1.431 1.374-.247 1.741l5.443 1.693 12.643-7.911c.595-.394 1.136-.176.691.218z"/>
  </symbol>
  <symbol id="vk" viewBox="0 0 36.7 36.7">
    <path d="M36.5,26.8c0-0.1-0.1-0.2-0.1-0.2c-0.6-1.1-1.9-2.6-3.7-4.2l0,0l0,0l0,0h0c-0.8-0.8-1.3-1.3-1.5-1.6
      c-0.4-0.5-0.5-1-0.3-1.5c0.2-0.4,0.7-1.2,1.7-2.5c0.5-0.7,0.9-1.2,1.2-1.6c2.2-2.9,3.2-4.8,2.9-5.6l-0.1-0.2C36.5,9.1,36.3,9,36,8.9
      c-0.3-0.1-0.7-0.1-1.2,0l-5.5,0c-0.1,0-0.2,0-0.4,0c-0.2,0-0.2,0.1-0.2,0.1l-0.1,0l-0.1,0.1c-0.1,0-0.1,0.1-0.2,0.2
      c-0.1,0.1-0.1,0.2-0.2,0.3c-0.6,1.5-1.3,3-2,4.3c-0.5,0.8-0.9,1.5-1.3,2.1c-0.4,0.6-0.7,1-1,1.3c-0.3,0.3-0.5,0.5-0.7,0.7
      c-0.2,0.2-0.4,0.2-0.5,0.2c-0.1,0-0.2-0.1-0.3-0.1c-0.2-0.1-0.3-0.3-0.4-0.5c-0.1-0.2-0.2-0.4-0.2-0.7c0-0.3-0.1-0.6-0.1-0.8
      c0-0.2,0-0.5,0-0.9c0-0.4,0-0.7,0-0.8c0-0.5,0-1,0-1.6c0-0.6,0-1,0-1.3c0-0.3,0-0.7,0-1.1c0-0.4,0-0.7-0.1-0.9
      c0-0.2-0.1-0.4-0.2-0.6c-0.1-0.2-0.2-0.4-0.4-0.5c-0.2-0.1-0.4-0.2-0.6-0.3c-0.7-0.2-1.5-0.2-2.6-0.2c-2.4,0-3.9,0.1-4.6,0.5
      c-0.3,0.1-0.5,0.3-0.7,0.6c-0.2,0.3-0.3,0.4-0.1,0.5c0.8,0.1,1.3,0.4,1.6,0.8l0.1,0.2c0.1,0.2,0.2,0.5,0.3,0.9
      c0.1,0.4,0.1,0.9,0.2,1.4c0.1,0.9,0.1,1.7,0,2.4c-0.1,0.7-0.1,1.2-0.2,1.5c-0.1,0.4-0.1,0.7-0.3,0.9c-0.1,0.2-0.2,0.4-0.2,0.4
      c0,0.1-0.1,0.1-0.1,0.1c-0.2,0.1-0.3,0.1-0.5,0.1c-0.2,0-0.4-0.1-0.6-0.3c-0.3-0.2-0.5-0.4-0.8-0.7c-0.3-0.3-0.6-0.7-0.9-1.3
      c-0.3-0.6-0.7-1.2-1.1-2l-0.3-0.6c-0.2-0.4-0.5-0.9-0.8-1.6c-0.3-0.7-0.6-1.3-0.9-2C7.7,9.5,7.5,9.3,7.3,9.1L7.2,9.1
      C7.1,9,7,9,6.9,8.9C6.8,8.9,6.6,8.8,6.5,8.8l-5.2,0C0.7,8.8,0.3,9,0.1,9.2L0.1,9.3C0,9.4,0,9.5,0,9.6c0,0.1,0,0.3,0.1,0.5
      c0.8,1.8,1.6,3.5,2.5,5.2c0.9,1.7,1.7,3,2.3,4c0.7,1,1.3,2,2,2.9c0.7,0.9,1.1,1.5,1.4,1.7c0.2,0.3,0.4,0.4,0.5,0.6L9.3,25
      c0.3,0.3,0.8,0.7,1.3,1.1c0.6,0.4,1.2,0.8,2,1.3c0.7,0.4,1.6,0.8,2.5,1c1,0.3,1.9,0.4,2.8,0.3h2.2c0.4,0,0.8-0.2,1-0.4l0.1-0.1
      c0.1-0.1,0.1-0.2,0.1-0.4c0-0.2,0.1-0.3,0.1-0.5c0-0.5,0-1,0.1-1.5c0.1-0.4,0.2-0.8,0.3-1c0.1-0.2,0.3-0.4,0.4-0.6
      c0.2-0.2,0.3-0.2,0.3-0.3c0.1,0,0.1-0.1,0.2-0.1c0.3-0.1,0.7,0,1.1,0.3c0.4,0.3,0.8,0.7,1.2,1.1c0.4,0.4,0.8,0.9,1.3,1.5
      c0.5,0.5,1,1,1.3,1.2l0.4,0.2c0.3,0.2,0.6,0.3,1,0.4c0.4,0.1,0.8,0.2,1.1,0.1l4.9-0.1c0.5,0,0.9-0.1,1.1-0.2
      c0.3-0.2,0.4-0.3,0.5-0.5c0.1-0.2,0.1-0.4,0-0.7C36.6,27.1,36.6,26.9,36.5,26.8L36.5,26.8z M36.5,26.8"/>
  </symbol>
  <symbol id="fb" viewBox="0 0 155.139 155.139">
    <path d="M89.584,155.139V84.378h23.742l3.562-27.585H89.584V39.184
      c0-7.984,2.208-13.425,13.67-13.425l14.595-0.006V1.08C115.325,0.752,106.661,0,96.577,0C75.52,0,61.104,12.853,61.104,36.452
      v20.341H37.29v27.585h23.814v70.761H89.584z"/>
  </symbol>
  <symbol id="inst" viewBox="0 0 24 24">
    <path d="m12.004 5.838c-3.403 0-6.158 2.758-6.158 6.158 0 3.403 2.758 6.158 6.158 6.158 3.403 0 6.158-2.758 6.158-6.158 0-3.403-2.758-6.158-6.158-6.158zm0 10.155c-2.209 0-3.997-1.789-3.997-3.997s1.789-3.997 3.997-3.997 3.997 1.789 3.997 3.997c.001 2.208-1.788 3.997-3.997 3.997z"/>
    <path d="m16.948.076c-2.208-.103-7.677-.098-9.887 0-1.942.091-3.655.56-5.036 1.941-2.308 2.308-2.013 5.418-2.013 9.979 0 4.668-.26 7.706 2.013 9.979 2.317 2.316 5.472 2.013 9.979 2.013 4.624 0 6.22.003 7.855-.63 2.223-.863 3.901-2.85 4.065-6.419.104-2.209.098-7.677 0-9.887-.198-4.213-2.459-6.768-6.976-6.976zm3.495 20.372c-1.513 1.513-3.612 1.378-8.468 1.378-5 0-7.005.074-8.468-1.393-1.685-1.677-1.38-4.37-1.38-8.453 0-5.525-.567-9.504 4.978-9.788 1.274-.045 1.649-.06 4.856-.06l.045.03c5.329 0 9.51-.558 9.761 4.986.057 1.265.07 1.645.07 4.847-.001 4.942.093 6.959-1.394 8.453z"/>
    <circle cx="18.406" cy="5.595" r="1.439"/>
  </symbol>
</svg>
